<?xml version="1.0" encoding="UTF-8"?>
<svg id="Layer_1" data-name="Layer 1" xmlns="http://www.w3.org/2000/svg" width="90" height="30.901" viewBox="0 0 90 30.901">
  <defs>
    <style>
      .cls-1 {
        fill: #fff;
      }

      .cls-2 {
        fill: none;
        stroke: #fff;
        stroke-miterlimit: 10;
        stroke-width: .961px;
      }

      .cls-3 {
        fill: #ccdb29;
      }

      .cls-4 {
        fill: #f9ec23;
      }
    </style>
  </defs>

  <path class="cls-1" d="m48.092,8.063l.743-3.69s-.833-.199-1.547-.238c-1.415-.078-2.988.154-4.147,1.03-1.427,1.076-1.866,2.43-1.99,4.07l-.027,11.854h4.495v-11.5c0-.637.373-1.201,1.1-1.495.68-.274,1.373-.032,1.373-.032"/>
  <path class="cls-1" d="m51.538,19.945c.895.997,2.105,1.503,3.599,1.503,1.128,0,2.317-.194,3.536-.572l-1.329-3.711c-.65.107-1.001.134-1.187.134-1.036,0-1.499-.44-1.499-1.426v-6.205h2.693v-3.912l-2.693-.006V1.924h-4.457v14.066c0,1.638.45,2.97,1.337,3.955"/>
  <path class="cls-1" d="m22.289,17.299c-1.036,0-1.498-.439-1.498-1.426v-6.205h2.692v-3.913l-2.692-.005V1.925h-4.458v14.066c0,1.638.45,2.97,1.337,3.955.895.996,2.105,1.503,3.599,1.503,1.128,0,2.317-.194,3.536-.572l-1.329-3.712c-.65.108-1.001.135-1.187.135"/>
  <path class="cls-4" d="m62.196,21.371c1.43,0,2.593-1.164,2.593-2.594s-1.163-2.593-2.593-2.593-2.594,1.163-2.594,2.593,1.164,2.594,2.594,2.594"/>
  <path class="cls-3" d="m72.728,17.505c-1.977,0-3.413-1.518-3.413-3.61s1.436-3.611,3.413-3.611c.643,0,1.208.151,1.664.423h0c.028.019.056.039.082.055l2-3.375c-.184-.104-.373-.2-.567-.287-.017-.007-.034-.015-.051-.022-.072-.032-.144-.063-.217-.092-.889-.37-1.86-.563-2.912-.563-2.123,0-3.934.719-5.384,2.139-1.442,1.412-2.173,3.207-2.173,5.334,0,2.107.731,3.892,2.173,5.305,1.449,1.419,3.262,2.139,5.384,2.139,1.078,0,2.066-.186,2.959-.549l-1.591-3.56c-.397.178-.859.275-1.369.275"/>
  <path class="cls-1" d="m34.889,15.536c.014,1.161-.91,1.771-2.089,2.104-1.179.334-3.495.514-3.522-1.181-.023-1.477,1.506-1.567,2.602-1.733,1.096-.167,2.242-.41,3.009-.673,0,0,0,1.405,0,1.482m3.479-8.872c-1.55-2.566-5.695-2.933-8.285-2.071-2.272.755-3.646,2.725-3.839,5.074h3.942c.109-1.23,1.269-1.814,2.497-1.814.766,0,2.187.11,2.172,1.163-.018,1.244-1.272,1.656-2.292,1.815l-2.813.337c-4.163.664-4.665,2.975-4.665,4.869,0,3.4,2.933,5.452,6.265,5.444,1.559-.003,2.956-.395,4.126-1.035l.011.643h3.568v-12.078h-.013c-.048-.822-.246-1.638-.674-2.348"/>
  <path class="cls-3" d="m84.625,16.296c.012,1.013-.795,1.544-1.822,1.836-1.028.29-3.05.447-3.073-1.03-.02-1.289,1.314-1.367,2.27-1.512.956-.146,1.956-.358,2.625-.587,0,0,0,1.226,0,1.293m3.034-7.739c-1.352-2.237-4.967-2.558-7.227-1.807-1.981.66-3.18,2.377-3.347,4.426h3.438c.096-1.072,1.107-1.582,2.179-1.582.667,0,1.907.096,1.895,1.014-.016,1.085-1.11,1.445-2,1.583l-2.454.295c-3.631.579-4.068,2.595-4.068,4.247,0,2.966,2.558,4.755,5.464,4.748,1.36-.003,2.579-.344,3.6-.902l.01.561h3.112v-10.534h-.012c-.042-.717-.215-1.43-.588-2.049"/>
  <path class="cls-4" d="m49.769,24.246c-.229-.174-.542-.18-.771-.007l-1.166.885c-.308.234-.333.681-.063.956,3.023,3.083,6.482,4.821,10.206,4.821s7.182-1.738,10.205-4.821c.27-.275.245-.723-.062-.956l-1.167-.885c-.229-.174-.542-.167-.771.007-1.144.87-3.787,2.841-8.205,2.841s-7.061-1.971-8.206-2.841"/>
  <path class="cls-1" d="m9.908,11.035l-2.915-.463c-1.262-.196-1.902-.674-1.902-1.418,0-.774,1.003-1.315,2.439-1.315,1.705,0,2.468.694,2.621,1.827h4.301c-.112-1.275-.573-2.56-1.476-3.491-.056-.058-.113-.114-.172-.168-.905-.842-2.157-1.381-3.352-1.655-.63-.144-1.276-.209-1.922-.209C3.301,4.143.568,6.266.568,9.551c0,1.859.859,4.214,4.949,4.873l3.045.563c1.042.165,1.57.597,1.57,1.286,0,.806-.745,1.347-2.402,1.347-2.069,0-3.205-.765-3.472-2.337v-.002H0l.007.065c.354,3.899,3.133,6.136,7.624,6.136,4.412,0,6.894-2.175,6.894-5.54,0-1.876-.497-4.249-4.616-4.907"/>
</svg>